<?xml version="1.0" encoding="utf-8"?>
<svg version="1.1" xmlns:xlink="http://www.w3.org/1999/xlink" width="22px" height="23px" xmlns="http://www.w3.org/2000/svg">
  <g transform="matrix(1 0 0 1 -778 -701 )">
    <path d="M 21.2147239263804 0  C 21.3783231083845 0  21.5255623721881 0.047061011904764  21.6564417177914 0.141183035714287  C 21.9263803680982 0.346540178571429  22.0368098159509 0.620349702380952  21.9877300613497 0.962611607142858  L 18.8466257668712 20.6768973214286  C 18.8057259713701 20.925037202381  18.6748466257669 21.1175595238095  18.4539877300614 21.2544642857143  C 18.3394683026585 21.3229166666667  18.2126789366053 21.3571428571429  18.0736196319018 21.3571428571429  C 17.9836400817996 21.3571428571429  17.8854805725971 21.3357514880952  17.7791411042945 21.29296875  L 12.2208588957055 18.9185267857143  L 9.25153374233129 22.7047991071429  C 9.10429447852761 22.901599702381  8.9038854805726 23  8.65030674846626 23  C 8.5439672801636 23  8.45398773006135 22.9828869047619  8.38036809815951 22.9486607142857  C 8.22494887525562 22.8887648809524  8.10020449897751 22.7882254464286  8.00613496932515 22.6470424107143  C 7.9120654396728 22.505859375  7.86503067484663 22.3497023809524  7.86503067484663 22.1785714285714  L 7.86503067484663 17.69921875  L 18.4662576687117 4.10714285714286  L 5.34969325153374 15.9793526785714  L 0.503067484662577 13.9001116071429  C 0.20040899795501 13.7803199404762  0.0368098159509202 13.5450148809524  0.0122699386503067 13.1941964285714  C -0.00408997955010225 12.8519345238095  0.12678936605317 12.5995163690476  0.404907975460123 12.4369419642857  L 20.8220858895706 0.115513392857142  C 20.9447852760736 0.0385044642857132  21.0756646216769 0  21.2147239263804 0  Z " fill-rule="nonzero" fill="#000000" stroke="none" transform="matrix(1 0 0 1 778 701 )" />
  </g>
</svg>