<?xml version="1.0" encoding="utf-8"?>
<svg version="1.1" xmlns:xlink="http://www.w3.org/1999/xlink" width="32px" height="27px" xmlns="http://www.w3.org/2000/svg">
  <g transform="matrix(1 0 0 1 -256 -698 )">
    <path d="M 12.6083333333333 12.2749399038462  C 13.5472222222222 11.3608774038462  14.6777777777778 10.9038461538462  16 10.9038461538462  C 17.3222222222222 10.9038461538462  18.4527777777778 11.3608774038462  19.3916666666667 12.2749399038462  C 20.3305555555556 13.1890024038462  20.8 14.2896634615385  20.8 15.5769230769231  C 20.8 16.8641826923077  20.3305555555556 17.96484375  19.3916666666667 18.87890625  C 18.4527777777778 19.79296875  17.3222222222222 20.25  16 20.25  C 14.6777777777778 20.25  13.5472222222222 19.79296875  12.6083333333333 18.87890625  C 11.6694444444444 17.96484375  11.2 16.8641826923077  11.2 15.5769230769231  C 11.2 14.2896634615385  11.6694444444444 13.1890024038462  12.6083333333333 12.2749399038462  Z M 24 4.15384615384615  L 27.7333333333333 4.15384615384615  C 28.9111111111111 4.15384615384615  29.9166666666667 4.55949519230769  30.75 5.37079326923077  C 31.5833333333333 6.18209134615385  32 7.16105769230769  32 8.30769230769231  L 32 22.8461538461538  C 32 23.9927884615385  31.5833333333333 24.9717548076923  30.75 25.7830528846154  C 29.9166666666667 26.5943509615385  28.9111111111111 27  27.7333333333333 27  L 4.26666666666667 27  C 3.08888888888889 27  2.08333333333333 26.5943509615385  1.25 25.7830528846154  C 0.416666666666667 24.9717548076923  0 23.9927884615385  0 22.8461538461538  L 0 8.30769230769231  C 0 7.16105769230769  0.416666666666667 6.18209134615385  1.25 5.37079326923077  C 2.08333333333333 4.55949519230769  3.08888888888889 4.15384615384615  4.26666666666667 4.15384615384615  L 8 4.15384615384615  L 8.85 1.94711538461538  C 9.06111111111111 1.41706730769231  9.44722222222222 0.960036057692306  10.0083333333333 0.576021634615384  C 10.5694444444444 0.192007211538464  11.1444444444444 0  11.7333333333333 0  L 20.2666666666667 0  C 20.8555555555556 0  21.4305555555556 0.192007211538464  21.9916666666667 0.576021634615384  C 22.5527777777778 0.960036057692306  22.9388888888889 1.41706730769231  23.15 1.94711538461538  L 24 4.15384615384615  Z M 10.725 20.7124399038462  C 12.1861111111111 22.1349158653846  13.9444444444444 22.8461538461538  16 22.8461538461538  C 18.0555555555556 22.8461538461538  19.8138888888889 22.1349158653846  21.275 20.7124399038462  C 22.7361111111111 19.2899639423077  23.4666666666667 17.578125  23.4666666666667 15.5769230769231  C 23.4666666666667 13.5757211538462  22.7361111111111 11.8638822115385  21.275 10.44140625  C 19.8138888888889 9.01893028846154  18.0555555555556 8.30769230769231  16 8.30769230769231  C 13.9444444444444 8.30769230769231  12.1861111111111 9.01893028846154  10.725 10.44140625  C 9.26388888888889 11.8638822115385  8.53333333333333 13.5757211538462  8.53333333333333 15.5769230769231  C 8.53333333333333 17.578125  9.26388888888889 19.2899639423077  10.725 20.7124399038462  Z " fill-rule="nonzero" fill="#000000" stroke="none" transform="matrix(1 0 0 1 256 698 )" />
  </g>
</svg>