<?xml version="1.0" encoding="utf-8"?>
<svg version="1.1" xmlns:xlink="http://www.w3.org/1999/xlink" width="30px" height="27px" xmlns="http://www.w3.org/2000/svg">
  <g transform="matrix(1 0 0 1 -249 -90 )">
    <path d="M 9.17410714285714 1.06975446428571  C 11.0267857142857 0.356584821428571  12.96875 0  15 0  C 17.03125 0  18.9732142857143 0.356584821428571  20.8258928571429 1.06975446428571  C 22.6785714285714 1.78292410714286  24.2745535714286 2.7421875  25.6138392857143 3.94754464285714  C 26.953125 5.15290178571429  28.0189732142857 6.58928571428571  28.8113839285714 8.25669642857143  C 29.6037946428571 9.92410714285714  30 11.671875  30 13.5  C 30 15.3180803571429  29.6065848214286 17.0608258928571  28.8197544642857 18.7282366071429  C 28.0329241071429 20.3956473214286  26.9698660714286 21.83203125  25.6305803571429 23.0373883928571  C 24.2912946428571 24.2427455357143  22.6953125 25.2045200892857  20.8426339285714 25.9227120535714  C 18.9899553571429 26.6409040178571  17.0424107142857 27  15 27  C 12.9575892857143 27  11.0100446428571 26.6434151785714  9.15736607142857 25.9302455357143  C 7.3046875 25.2170758928571  5.71149553571429 24.2553013392857  4.37779017857143 23.044921875  C 3.04408482142857 21.8345424107143  1.98102678571429 20.3981584821429  1.18861607142857 18.7357700892857  C 0.396205357142857 17.0733816964286  0 15.328125  0 13.5  C 0 11.671875  0.396205357142857 9.92410714285714  1.18861607142857 8.25669642857143  C 1.98102678571429 6.58928571428571  3.046875 5.15290178571429  4.38616071428571 3.94754464285714  C 5.72544642857143 2.7421875  7.32142857142857 1.78292410714286  9.17410714285714 1.06975446428571  Z M 20.2399553571429 15.4285714285714  C 22.9185267857143 15.4285714285714  24.6261160714286 17.0708705357143  25.3627232142857 20.35546875  C 27.0256696428571 18.2963169642857  27.8571428571429 16.0111607142857  27.8571428571429 13.5  C 27.8571428571429 11.9330357142857  27.5167410714286 10.4363839285714  26.8359375 9.01004464285714  C 26.1551339285714 7.58370535714286  25.2399553571429 6.35323660714285  24.0904017857143 5.31863839285714  C 22.9408482142857 4.28404017857143  21.5736607142857 3.46037946428571  19.9888392857143 2.84765625  C 18.4040178571429 2.23493303571428  16.7410714285714 1.92857142857143  15 1.92857142857143  C 13.2589285714286 1.92857142857143  11.5959821428571 2.23493303571428  10.0111607142857 2.84765625  C 8.42633928571429 3.46037946428571  7.05915178571429 4.28404017857143  5.90959821428571 5.31863839285714  C 4.76004464285714 6.35323660714285  3.84486607142857 7.58370535714286  3.1640625 9.01004464285714  C 2.48325892857143 10.4363839285714  2.14285714285714 11.9330357142857  2.14285714285714 13.5  C 2.14285714285714 16.0111607142857  2.97433035714286 18.2963169642857  4.63727678571429 20.35546875  C 5.37388392857143 17.0708705357143  7.08147321428571 15.4285714285714  9.76004464285714 15.4285714285714  C 11.2220982142857 16.7142857142857  12.96875 17.3571428571429  15 17.3571428571429  C 17.03125 17.3571428571429  18.7779017857143 16.7142857142857  20.2399553571429 15.4285714285714  Z M 19.5452008928571 14.6978236607143  C 20.80078125 13.5678013392857  21.4285714285714 12.2042410714286  21.4285714285714 10.6071428571429  C 21.4285714285714 9.01004464285714  20.80078125 7.646484375  19.5452008928571 6.51646205357143  C 18.2896205357143 5.38643973214286  16.7745535714286 4.82142857142857  15 4.82142857142857  C 13.2254464285714 4.82142857142857  11.7103794642857 5.38643973214286  10.4547991071429 6.51646205357143  C 9.19921875 7.646484375  8.57142857142857 9.01004464285714  8.57142857142857 10.6071428571429  C 8.57142857142857 12.2042410714286  9.19921875 13.5678013392857  10.4547991071429 14.6978236607143  C 11.7103794642857 15.8278459821429  13.2254464285714 16.3928571428571  15 16.3928571428571  C 16.7745535714286 16.3928571428571  18.2896205357143 15.8278459821429  19.5452008928571 14.6978236607143  Z " fill-rule="nonzero" fill="#000000" stroke="none" transform="matrix(1 0 0 1 249 90 )" />
  </g>
</svg>