<?xml version="1.0" encoding="utf-8"?>
<svg version="1.1" xmlns:xlink="http://www.w3.org/1999/xlink" width="52px" height="35px" xmlns="http://www.w3.org/2000/svg">
  <defs>
    <mask fill="white" id="clip3">
      <path d="M 4 26.875  L 4 32.5  L 13 32.5  L 13 26.875  L 4 26.875  Z M 15 26.875  L 15 32  L 25 32  L 25 26.875  L 15 26.875  Z M 4 19.375  L 4 25.625  L 13 25.625  L 13 19.375  L 4 19.375  Z M 15 19  L 15 25  L 25 25  L 25 19  L 15 19  Z M 4 12.5  L 4 18.125  L 13 18.125  L 13 12.5  L 4 12.5  Z M 27 26.875  L 27 32.5  L 37 32.5  L 37 26.875  L 27 26.875  Z M 15 13  L 15 18  L 25 18  L 25 13  L 15 13  Z M 39 26.875  L 39 32.5  L 48 32.5  L 48 26.875  L 39 26.875  Z M 27 19.375  L 27 25.625  L 37 25.625  L 37 19.375  L 27 19.375  Z M 15.703125 9.189453125  C 15.9010416666667 9.06575520833333  16 8.91927083333333  16 8.75  L 16 3.125  C 16 2.95572916666667  15.9010416666667 2.80924479166667  15.703125 2.685546875  C 15.5052083333333 2.56184895833333  15.2708333333333 2.5  15 2.5  L 13 2.5  C 12.7291666666667 2.5  12.4947916666667 2.56184895833333  12.296875 2.685546875  C 12.0989583333333 2.80924479166667  12 2.95572916666667  12 3.125  L 12 8.75  C 12 8.91927083333333  12.0989583333333 9.06575520833333  12.296875 9.189453125  C 12.4947916666667 9.31315104166667  12.7291666666667 9.375  13 9.375  L 15 9.375  C 15.2708333333333 9.375  15.5052083333333 9.31315104166667  15.703125 9.189453125  Z M 39 19.375  L 39 25.625  L 48 25.625  L 48 19.375  L 39 19.375  Z M 27 12.5  L 27 18.125  L 37 18.125  L 37 12.5  L 27 12.5  Z M 39 12.5  L 39 18.125  L 48 18.125  L 48 12.5  L 39 12.5  Z M 39.703125 9.189453125  C 39.9010416666667 9.06575520833333  40 8.91927083333333  40 8.75  L 40 3.125  C 40 2.95572916666667  39.9010416666667 2.80924479166667  39.703125 2.685546875  C 39.5052083333333 2.56184895833333  39.2708333333333 2.5  39 2.5  L 37 2.5  C 36.7291666666667 2.5  36.4947916666667 2.56184895833333  36.296875 2.685546875  C 36.0989583333333 2.80924479166667  36 2.95572916666667  36 3.125  L 36 8.75  C 36 8.91927083333333  36.0989583333333 9.06575520833333  36.296875 9.189453125  C 36.4947916666667 9.31315104166667  36.7291666666667 9.375  37 9.375  L 39 9.375  C 39.2708333333333 9.375  39.5052083333333 9.31315104166667  39.703125 9.189453125  Z M 50.8125 5.7421875  C 51.6041666666667 6.23697916666667  52 6.82291666666667  52 7.5  L 52 32.5  C 52 33.1770833333333  51.6041666666667 33.7630208333333  50.8125 34.2578125  C 50.0208333333333 34.7526041666667  49.0833333333333 35  48 35  L 4 35  C 2.91666666666667 35  1.97916666666667 34.7526041666667  1.1875 34.2578125  C 0.395833333333333 33.7630208333333  0 33.1770833333333  0 32.5  L 0 7.5  C 0 6.82291666666667  0.395833333333333 6.23697916666667  1.1875 5.7421875  C 1.97916666666667 5.24739583333333  2.91666666666667 5  4 5  L 8 5  L 8 3.125  C 8 2.265625  8.48958333333333 1.52994791666666  9.46875 0.917968750000001  C 10.4479166666667 0.305989583333334  11.625 0  13 0  L 15 0  C 16.375 0  17.5520833333333 0.305989583333334  18.53125 0.917968750000001  C 19.5104166666667 1.52994791666666  20 2.265625  20 3.125  L 20 5  L 32 5  L 32 3.125  C 32 2.265625  32.4895833333333 1.52994791666666  33.46875 0.917968750000001  C 34.4479166666667 0.305989583333334  35.625 0  37 0  L 39 0  C 40.375 0  41.5520833333333 0.305989583333334  42.53125 0.917968750000001  C 43.5104166666667 1.52994791666666  44 2.265625  44 3.125  L 44 5  L 48 5  C 49.0833333333333 5  50.0208333333333 5.24739583333333  50.8125 5.7421875  Z " fill-rule="evenodd" />
    </mask>
  </defs>
  <g transform="matrix(1 0 0 1 -853 -114 )">
    <path d="M 4 26.875  L 4 32.5  L 13 32.5  L 13 26.875  L 4 26.875  Z M 15 26.875  L 15 32  L 25 32  L 25 26.875  L 15 26.875  Z M 4 19.375  L 4 25.625  L 13 25.625  L 13 19.375  L 4 19.375  Z M 15 19  L 15 25  L 25 25  L 25 19  L 15 19  Z M 4 12.5  L 4 18.125  L 13 18.125  L 13 12.5  L 4 12.5  Z M 27 26.875  L 27 32.5  L 37 32.5  L 37 26.875  L 27 26.875  Z M 15 13  L 15 18  L 25 18  L 25 13  L 15 13  Z M 39 26.875  L 39 32.5  L 48 32.5  L 48 26.875  L 39 26.875  Z M 27 19.375  L 27 25.625  L 37 25.625  L 37 19.375  L 27 19.375  Z M 15.703125 9.189453125  C 15.9010416666667 9.06575520833333  16 8.91927083333333  16 8.75  L 16 3.125  C 16 2.95572916666667  15.9010416666667 2.80924479166667  15.703125 2.685546875  C 15.5052083333333 2.56184895833333  15.2708333333333 2.5  15 2.5  L 13 2.5  C 12.7291666666667 2.5  12.4947916666667 2.56184895833333  12.296875 2.685546875  C 12.0989583333333 2.80924479166667  12 2.95572916666667  12 3.125  L 12 8.75  C 12 8.91927083333333  12.0989583333333 9.06575520833333  12.296875 9.189453125  C 12.4947916666667 9.31315104166667  12.7291666666667 9.375  13 9.375  L 15 9.375  C 15.2708333333333 9.375  15.5052083333333 9.31315104166667  15.703125 9.189453125  Z M 39 19.375  L 39 25.625  L 48 25.625  L 48 19.375  L 39 19.375  Z M 27 12.5  L 27 18.125  L 37 18.125  L 37 12.5  L 27 12.5  Z M 39 12.5  L 39 18.125  L 48 18.125  L 48 12.5  L 39 12.5  Z M 39.703125 9.189453125  C 39.9010416666667 9.06575520833333  40 8.91927083333333  40 8.75  L 40 3.125  C 40 2.95572916666667  39.9010416666667 2.80924479166667  39.703125 2.685546875  C 39.5052083333333 2.56184895833333  39.2708333333333 2.5  39 2.5  L 37 2.5  C 36.7291666666667 2.5  36.4947916666667 2.56184895833333  36.296875 2.685546875  C 36.0989583333333 2.80924479166667  36 2.95572916666667  36 3.125  L 36 8.75  C 36 8.91927083333333  36.0989583333333 9.06575520833333  36.296875 9.189453125  C 36.4947916666667 9.31315104166667  36.7291666666667 9.375  37 9.375  L 39 9.375  C 39.2708333333333 9.375  39.5052083333333 9.31315104166667  39.703125 9.189453125  Z M 50.8125 5.7421875  C 51.6041666666667 6.23697916666667  52 6.82291666666667  52 7.5  L 52 32.5  C 52 33.1770833333333  51.6041666666667 33.7630208333333  50.8125 34.2578125  C 50.0208333333333 34.7526041666667  49.0833333333333 35  48 35  L 4 35  C 2.91666666666667 35  1.97916666666667 34.7526041666667  1.1875 34.2578125  C 0.395833333333333 33.7630208333333  0 33.1770833333333  0 32.5  L 0 7.5  C 0 6.82291666666667  0.395833333333333 6.23697916666667  1.1875 5.7421875  C 1.97916666666667 5.24739583333333  2.91666666666667 5  4 5  L 8 5  L 8 3.125  C 8 2.265625  8.48958333333333 1.52994791666666  9.46875 0.917968750000001  C 10.4479166666667 0.305989583333334  11.625 0  13 0  L 15 0  C 16.375 0  17.5520833333333 0.305989583333334  18.53125 0.917968750000001  C 19.5104166666667 1.52994791666666  20 2.265625  20 3.125  L 20 5  L 32 5  L 32 3.125  C 32 2.265625  32.4895833333333 1.52994791666666  33.46875 0.917968750000001  C 34.4479166666667 0.305989583333334  35.625 0  37 0  L 39 0  C 40.375 0  41.5520833333333 0.305989583333334  42.53125 0.917968750000001  C 43.5104166666667 1.52994791666666  44 2.265625  44 3.125  L 44 5  L 48 5  C 49.0833333333333 5  50.0208333333333 5.24739583333333  50.8125 5.7421875  Z " fill-rule="nonzero" fill="#ffffff" stroke="none" transform="matrix(1 0 0 1 853 114 )" />
    <path d="M 4 26.875  L 4 32.5  L 13 32.5  L 13 26.875  L 4 26.875  Z " stroke-width="2" stroke="#797979" fill="none" transform="matrix(1 0 0 1 853 114 )" mask="url(#clip3)" />
    <path d="M 15 26.875  L 15 32  L 25 32  L 25 26.875  L 15 26.875  Z " stroke-width="2" stroke="#797979" fill="none" transform="matrix(1 0 0 1 853 114 )" mask="url(#clip3)" />
    <path d="M 4 19.375  L 4 25.625  L 13 25.625  L 13 19.375  L 4 19.375  Z " stroke-width="2" stroke="#797979" fill="none" transform="matrix(1 0 0 1 853 114 )" mask="url(#clip3)" />
    <path d="M 15 19  L 15 25  L 25 25  L 25 19  L 15 19  Z " stroke-width="2" stroke="#797979" fill="none" transform="matrix(1 0 0 1 853 114 )" mask="url(#clip3)" />
    <path d="M 4 12.5  L 4 18.125  L 13 18.125  L 13 12.5  L 4 12.5  Z " stroke-width="2" stroke="#797979" fill="none" transform="matrix(1 0 0 1 853 114 )" mask="url(#clip3)" />
    <path d="M 27 26.875  L 27 32.5  L 37 32.5  L 37 26.875  L 27 26.875  Z " stroke-width="2" stroke="#797979" fill="none" transform="matrix(1 0 0 1 853 114 )" mask="url(#clip3)" />
    <path d="M 15 13  L 15 18  L 25 18  L 25 13  L 15 13  Z " stroke-width="2" stroke="#797979" fill="none" transform="matrix(1 0 0 1 853 114 )" mask="url(#clip3)" />
    <path d="M 39 26.875  L 39 32.5  L 48 32.5  L 48 26.875  L 39 26.875  Z " stroke-width="2" stroke="#797979" fill="none" transform="matrix(1 0 0 1 853 114 )" mask="url(#clip3)" />
    <path d="M 27 19.375  L 27 25.625  L 37 25.625  L 37 19.375  L 27 19.375  Z " stroke-width="2" stroke="#797979" fill="none" transform="matrix(1 0 0 1 853 114 )" mask="url(#clip3)" />
    <path d="M 15.703125 9.189453125  C 15.9010416666667 9.06575520833333  16 8.91927083333333  16 8.75  L 16 3.125  C 16 2.95572916666667  15.9010416666667 2.80924479166667  15.703125 2.685546875  C 15.5052083333333 2.56184895833333  15.2708333333333 2.5  15 2.5  L 13 2.5  C 12.7291666666667 2.5  12.4947916666667 2.56184895833333  12.296875 2.685546875  C 12.0989583333333 2.80924479166667  12 2.95572916666667  12 3.125  L 12 8.75  C 12 8.91927083333333  12.0989583333333 9.06575520833333  12.296875 9.189453125  C 12.4947916666667 9.31315104166667  12.7291666666667 9.375  13 9.375  L 15 9.375  C 15.2708333333333 9.375  15.5052083333333 9.31315104166667  15.703125 9.189453125  Z " stroke-width="2" stroke="#797979" fill="none" transform="matrix(1 0 0 1 853 114 )" mask="url(#clip3)" />
    <path d="M 39 19.375  L 39 25.625  L 48 25.625  L 48 19.375  L 39 19.375  Z " stroke-width="2" stroke="#797979" fill="none" transform="matrix(1 0 0 1 853 114 )" mask="url(#clip3)" />
    <path d="M 27 12.5  L 27 18.125  L 37 18.125  L 37 12.5  L 27 12.5  Z " stroke-width="2" stroke="#797979" fill="none" transform="matrix(1 0 0 1 853 114 )" mask="url(#clip3)" />
    <path d="M 39 12.5  L 39 18.125  L 48 18.125  L 48 12.5  L 39 12.5  Z " stroke-width="2" stroke="#797979" fill="none" transform="matrix(1 0 0 1 853 114 )" mask="url(#clip3)" />
    <path d="M 39.703125 9.189453125  C 39.9010416666667 9.06575520833333  40 8.91927083333333  40 8.75  L 40 3.125  C 40 2.95572916666667  39.9010416666667 2.80924479166667  39.703125 2.685546875  C 39.5052083333333 2.56184895833333  39.2708333333333 2.5  39 2.5  L 37 2.5  C 36.7291666666667 2.5  36.4947916666667 2.56184895833333  36.296875 2.685546875  C 36.0989583333333 2.80924479166667  36 2.95572916666667  36 3.125  L 36 8.75  C 36 8.91927083333333  36.0989583333333 9.06575520833333  36.296875 9.189453125  C 36.4947916666667 9.31315104166667  36.7291666666667 9.375  37 9.375  L 39 9.375  C 39.2708333333333 9.375  39.5052083333333 9.31315104166667  39.703125 9.189453125  Z " stroke-width="2" stroke="#797979" fill="none" transform="matrix(1 0 0 1 853 114 )" mask="url(#clip3)" />
    <path d="M 50.8125 5.7421875  C 51.6041666666667 6.23697916666667  52 6.82291666666667  52 7.5  L 52 32.5  C 52 33.1770833333333  51.6041666666667 33.7630208333333  50.8125 34.2578125  C 50.0208333333333 34.7526041666667  49.0833333333333 35  48 35  L 4 35  C 2.91666666666667 35  1.97916666666667 34.7526041666667  1.1875 34.2578125  C 0.395833333333333 33.7630208333333  0 33.1770833333333  0 32.5  L 0 7.5  C 0 6.82291666666667  0.395833333333333 6.23697916666667  1.1875 5.7421875  C 1.97916666666667 5.24739583333333  2.91666666666667 5  4 5  L 8 5  L 8 3.125  C 8 2.265625  8.48958333333333 1.52994791666666  9.46875 0.917968750000001  C 10.4479166666667 0.305989583333334  11.625 0  13 0  L 15 0  C 16.375 0  17.5520833333333 0.305989583333334  18.53125 0.917968750000001  C 19.5104166666667 1.52994791666666  20 2.265625  20 3.125  L 20 5  L 32 5  L 32 3.125  C 32 2.265625  32.4895833333333 1.52994791666666  33.46875 0.917968750000001  C 34.4479166666667 0.305989583333334  35.625 0  37 0  L 39 0  C 40.375 0  41.5520833333333 0.305989583333334  42.53125 0.917968750000001  C 43.5104166666667 1.52994791666666  44 2.265625  44 3.125  L 44 5  L 48 5  C 49.0833333333333 5  50.0208333333333 5.24739583333333  50.8125 5.7421875  Z " stroke-width="2" stroke="#797979" fill="none" transform="matrix(1 0 0 1 853 114 )" mask="url(#clip3)" />
  </g>
</svg>