<?xml version="1.0" encoding="utf-8"?>
<svg version="1.1" xmlns:xlink="http://www.w3.org/1999/xlink" width="26px" height="7px" xmlns="http://www.w3.org/2000/svg">
  <g transform="matrix(1 0 0 1 -918 -211 )">
    <path d="M 6.57386363636364 0.510416666666666  C 6.9185606060606 0.850694444444441  7.09090909090909 1.26388888888889  7.09090909090909 1.75  L 7.09090909090909 5.25  C 7.09090909090909 5.73611111111111  6.9185606060606 6.14930555555555  6.57386363636364 6.48958333333333  C 6.22916666666667 6.82986111111111  5.81060606060606 7  5.31818181818182 7  L 1.77272727272727 7  C 1.28030303030303 7  0.861742424242424 6.82986111111111  0.517045454545455 6.48958333333333  C 0.172348484848485 6.14930555555555  0 5.73611111111111  0 5.25  L 0 1.75  C 0 1.26388888888889  0.172348484848485 0.850694444444441  0.517045454545455 0.510416666666666  C 0.861742424242424 0.170138888888888  1.28030303030303 0  1.77272727272727 0  L 5.31818181818182 0  C 5.81060606060606 0  6.22916666666667 0.170138888888888  6.57386363636364 0.510416666666666  Z M 16.0284090909091 0.510416666666666  C 16.3731060606061 0.850694444444441  16.5454545454545 1.26388888888889  16.5454545454545 1.75  L 16.5454545454545 5.25  C 16.5454545454545 5.73611111111111  16.3731060606061 6.14930555555555  16.0284090909091 6.48958333333333  C 15.6837121212121 6.82986111111111  15.2651515151515 7  14.7727272727273 7  L 11.2272727272727 7  C 10.7348484848485 7  10.3162878787879 6.82986111111111  9.97159090909091 6.48958333333333  C 9.62689393939394 6.14930555555555  9.45454545454546 5.73611111111111  9.45454545454546 5.25  L 9.45454545454546 1.75  C 9.45454545454546 1.26388888888889  9.62689393939394 0.850694444444441  9.97159090909091 0.510416666666666  C 10.3162878787879 0.170138888888888  10.7348484848485 0  11.2272727272727 0  L 14.7727272727273 0  C 15.2651515151515 0  15.6837121212121 0.170138888888888  16.0284090909091 0.510416666666666  Z M 25.4829545454545 0.510416666666666  C 25.8276515151515 0.850694444444441  26 1.26388888888889  26 1.75  L 26 5.25  C 26 5.73611111111111  25.8276515151515 6.14930555555555  25.4829545454545 6.48958333333333  C 25.1382575757576 6.82986111111111  24.719696969697 7  24.2272727272727 7  L 20.6818181818182 7  C 20.1893939393939 7  19.7708333333333 6.82986111111111  19.4261363636364 6.48958333333333  C 19.0814393939394 6.14930555555555  18.9090909090909 5.73611111111111  18.9090909090909 5.25  L 18.9090909090909 1.75  C 18.9090909090909 1.26388888888889  19.0814393939394 0.850694444444441  19.4261363636364 0.510416666666666  C 19.7708333333333 0.170138888888888  20.1893939393939 0  20.6818181818182 0  L 24.2272727272727 0  C 24.719696969697 0  25.1382575757576 0.170138888888888  25.4829545454545 0.510416666666666  Z " fill-rule="nonzero" fill="#000000" stroke="none" transform="matrix(1 0 0 1 918 211 )" />
  </g>
</svg>