<?xml version="1.0" encoding="utf-8"?>
<svg version="1.1" xmlns:xlink="http://www.w3.org/1999/xlink" width="121px" height="17px" xmlns="http://www.w3.org/2000/svg">
  <defs>
    <mask fill="white" id="clip1">
      <path d="M 0 12  L 0 5  C 0 2.20000000000005  2.19999999999999 0  5 0  L 74 0  L 116 0  C 118.8 0  121 2.20000000000005  121 5  L 121 12  C 121 14.8  118.8 17  116 17  L 65 17  L 5 17  C 2.19999999999999 17  0 14.8  0 12  Z " fill-rule="evenodd" />
    </mask>
  </defs>
  <g transform="matrix(1 0 0 1 -447 -507 )">
    <path d="M 0 12  L 0 5  C 0 2.20000000000005  2.19999999999999 0  5 0  L 74 0  L 116 0  C 118.8 0  121 2.20000000000005  121 5  L 121 12  C 121 14.8  118.8 17  116 17  L 65 17  L 5 17  C 2.19999999999999 17  0 14.8  0 12  Z " fill-rule="nonzero" fill="#ffffff" stroke="none" transform="matrix(1 0 0 1 447 507 )" />
    <path d="M 0 12  L 0 5  C 0 2.20000000000005  2.19999999999999 0  5 0  L 74 0  L 116 0  C 118.8 0  121 2.20000000000005  121 5  L 121 12  C 121 14.8  118.8 17  116 17  L 65 17  L 5 17  C 2.19999999999999 17  0 14.8  0 12  Z " stroke-width="2" stroke="#797979" fill="none" transform="matrix(1 0 0 1 447 507 )" mask="url(#clip1)" />
  </g>
</svg>